<svg id="svg" version="1.1" width="400" height="410.23017902813297" viewBox="0 0 400 410.23017902813297" xmlns="http://www.w3.org/2000/svg" xmlns:xlink="http://www.w3.org/1999/xlink" ><g id="svgg"><path id="path0" d="M245.905 26.283 C 246.402 26.379,247.122 26.375,247.505 26.275 C 247.887 26.175,247.480 26.096,246.600 26.101 C 245.720 26.105,245.407 26.187,245.905 26.283 M222.581 41.700 L 221.000 43.400 222.700 41.819 C 224.281 40.348,224.584 40.000,224.281 40.000 C 224.216 40.000,223.451 40.765,222.581 41.700 M329.800 49.200 C 332.212 51.620,334.276 53.600,334.386 53.600 C 334.496 53.600,332.612 51.620,330.200 49.200 C 327.788 46.780,325.724 44.800,325.614 44.800 C 325.504 44.800,327.388 46.780,329.800 49.200 M201.789 49.300 L 199.000 52.200 201.900 49.411 C 204.594 46.820,204.983 46.400,204.689 46.400 C 204.628 46.400,203.323 47.705,201.789 49.300 M211.791 51.300 L 208.600 54.600 211.900 51.409 C 214.965 48.446,215.382 48.000,215.091 48.000 C 215.030 48.000,213.545 49.485,211.791 51.300 M201.595 61.100 L 195.400 67.400 201.700 61.205 C 205.165 57.798,208.000 54.963,208.000 54.905 C 208.000 54.619,207.351 55.247,201.595 61.100 M191.392 71.700 L 187.800 75.400 191.500 71.808 C 194.936 68.472,195.382 68.000,195.092 68.000 C 195.032 68.000,193.367 69.665,191.392 71.700 M240.109 70.400 C 240.109 71.390,240.187 71.795,240.282 71.300 C 240.378 70.805,240.378 69.995,240.282 69.500 C 240.187 69.005,240.109 69.410,240.109 70.400 M178.378 73.100 L 177.000 74.600 178.500 73.222 C 179.325 72.463,180.000 71.788,180.000 71.722 C 180.000 71.416,179.662 71.704,178.378 73.100 M170.175 82.500 L 169.000 83.800 170.300 82.625 C 171.512 81.530,171.784 81.200,171.475 81.200 C 171.406 81.200,170.821 81.785,170.175 82.500 M180.975 83.300 L 179.800 84.600 181.100 83.425 C 181.815 82.779,182.400 82.194,182.400 82.125 C 182.400 81.816,182.070 82.088,180.975 83.300 M358.514 122.600 C 358.517 123.700,358.595 124.103,358.687 123.495 C 358.779 122.886,358.777 121.986,358.682 121.495 C 358.587 121.003,358.511 121.500,358.514 122.600 M110.465 196.617 C 109.795 198.088,109.923 198.402,110.647 197.065 C 110.986 196.440,111.188 195.854,111.096 195.763 C 111.005 195.671,110.721 196.056,110.465 196.617 M104.310 222.919 C 103.590 223.700,102.487 224.982,101.861 225.769 C 100.683 227.249,98.694 227.763,98.265 226.700 C 98.154 226.425,98.049 226.667,98.032 227.237 C 97.908 231.304,93.390 233.798,92.698 230.181 C 92.513 229.208,93.250 225.290,93.780 224.432 C 93.929 224.191,93.764 224.000,93.408 224.000 C 93.056 224.000,92.051 223.634,91.175 223.187 C 82.824 218.927,51.707 231.406,39.088 244.077 C 38.697 244.470,37.887 245.050,37.288 245.366 C 34.548 246.812,27.055 255.758,22.790 262.675 C 15.808 274.001,11.986 283.781,8.923 298.152 C 7.458 305.032,7.450 305.164,7.969 315.583 C 8.838 333.039,9.909 341.100,12.201 347.431 C 12.951 349.502,13.767 352.312,14.014 353.676 C 15.119 359.769,24.858 372.963,34.722 381.729 C 70.482 413.508,119.846 415.238,158.600 386.069 C 175.887 373.058,189.977 348.388,192.804 326.180 C 199.420 274.220,161.497 227.467,108.110 221.765 C 105.638 221.501,105.612 221.509,104.310 222.919 M307.669 237.641 C 307.409 237.949,306.607 239.100,305.887 240.200 C 304.600 242.166,304.545 242.199,302.656 242.132 C 300.851 242.069,300.773 242.107,301.367 242.764 C 302.727 244.267,301.705 246.314,299.829 245.843 C 298.611 245.537,293.967 240.420,293.330 238.682 C 293.072 237.977,292.847 237.704,292.830 238.076 C 292.789 238.988,292.459 239.150,288.884 240.004 C 254.941 248.115,229.323 278.289,226.570 313.400 C 226.415 315.380,226.138 317.403,225.956 317.895 C 225.745 318.462,226.064 321.836,226.825 327.095 C 229.495 345.543,230.595 350.372,233.591 356.800 C 234.667 359.110,235.758 361.810,236.014 362.800 C 237.375 368.061,250.447 381.267,261.000 388.042 C 297.400 411.412,345.246 405.658,374.457 374.397 C 417.624 328.200,394.914 255.669,332.305 239.774 C 323.743 237.601,308.797 236.307,307.669 237.641 M58.719 250.063 C 58.792 250.450,57.983 251.532,56.776 252.661 C 40.345 268.031,34.643 297.096,42.643 324.710 C 45.149 333.357,36.877 335.376,33.017 327.059 C 23.923 307.465,29.919 273.710,45.584 256.310 C 50.254 251.124,58.202 247.343,58.719 250.063 M122.023 265.765 C 127.118 266.481,134.335 267.944,135.300 268.456 C 135.945 268.799,136.000 269.864,136.000 282.014 L 136.000 295.200 134.462 295.200 C 133.335 295.200,132.240 294.755,130.362 293.535 C 103.779 276.263,78.423 291.073,81.970 321.800 C 85.258 350.275,111.780 358.704,133.600 338.210 C 135.933 336.019,137.813 335.410,138.752 336.543 C 139.355 337.269,138.628 362.643,137.982 363.421 C 136.133 365.650,119.844 369.685,109.498 370.478 C 69.084 373.575,42.246 343.671,51.389 305.730 C 58.515 276.161,85.867 260.685,122.023 265.765 M267.520 266.080 C 268.285 266.845,268.106 267.116,266.300 267.915 C 262.914 269.412,257.780 276.718,258.156 279.504 C 258.314 280.677,258.146 281.861,257.615 283.304 C 256.439 286.501,255.334 291.311,254.606 296.400 C 254.245 298.930,253.515 303.070,252.984 305.600 C 251.087 314.638,251.271 318.892,253.816 324.838 C 256.982 332.235,254.030 333.967,249.712 327.245 C 245.124 320.104,243.527 312.001,244.972 303.200 C 246.928 291.287,251.402 279.677,256.458 273.392 C 260.777 268.023,266.006 264.566,267.520 266.080 M329.200 271.364 C 345.777 274.616,354.409 283.175,354.449 296.400 C 354.473 304.506,351.220 310.419,344.104 315.200 C 341.417 317.006,341.435 317.077,345.100 319.202 C 366.770 331.768,363.818 362.483,340.183 370.366 C 332.671 372.871,331.236 372.973,303.400 372.987 L 278.200 373.000 278.256 371.800 C 278.287 371.140,278.816 368.440,279.432 365.800 L 280.551 361.000 280.698 324.000 C 280.855 284.679,280.815 283.610,278.921 275.957 C 278.344 273.623,277.990 271.403,278.136 271.024 C 278.523 270.014,323.856 270.316,329.200 271.364 M311.067 289.467 C 310.482 290.052,310.766 310.301,311.363 310.530 C 312.050 310.794,316.017 309.894,318.200 308.979 C 327.611 305.035,327.110 293.028,317.409 290.032 C 314.775 289.218,311.598 288.935,311.067 289.467 M311.300 327.865 C 310.570 328.159,310.575 353.715,311.305 354.321 C 311.948 354.855,317.233 353.900,319.855 352.777 C 329.876 348.481,329.961 334.682,319.997 329.599 C 317.500 328.325,312.587 327.345,311.300 327.865 M45.015 339.781 C 47.303 340.736,47.780 343.669,45.865 345.009 C 43.190 346.883,39.274 344.961,39.753 342.010 C 40.158 339.517,42.257 338.628,45.015 339.781 " stroke="none" fill="#da222a" fill-rule="evenodd"></path><path id="path1" d="M257.400 5.073 C 256.740 5.426,255.314 6.454,254.232 7.357 C 253.149 8.261,250.719 10.118,248.832 11.484 C 241.173 17.029,236.794 20.215,232.823 23.132 C 230.526 24.819,227.916 26.713,227.023 27.341 C 226.130 27.968,224.770 29.059,224.000 29.765 C 223.230 30.471,221.967 31.510,221.194 32.073 C 219.462 33.335,212.895 39.204,205.200 46.368 C 185.748 64.478,169.272 82.573,155.458 101.000 C 153.314 103.860,151.074 106.830,150.480 107.599 C 143.834 116.208,130.825 136.867,122.790 151.569 C 109.166 176.498,98.173 203.014,95.580 217.200 C 95.118 219.730,94.468 222.520,94.135 223.400 C 91.946 229.198,92.272 232.256,95.046 231.929 C 96.346 231.776,98.000 229.034,98.000 227.033 C 98.000 226.350,98.784 224.173,99.743 222.196 C 100.701 220.218,102.307 216.620,103.312 214.200 C 108.586 201.500,110.000 198.048,110.000 197.868 C 110.000 196.779,126.614 163.036,131.107 155.000 C 157.148 108.426,187.810 71.106,228.127 36.913 C 233.259 32.560,232.987 31.882,233.061 49.200 C 233.094 57.010,233.307 65.200,233.534 67.400 C 233.761 69.600,234.229 74.370,234.574 78.000 C 235.295 85.587,236.577 95.328,237.390 99.400 C 237.697 100.940,238.247 103.910,238.611 106.000 C 241.976 125.296,248.940 150.259,255.652 167.083 C 256.723 169.768,257.600 172.065,257.600 172.186 C 257.600 172.543,260.685 179.634,265.786 191.000 C 272.622 206.234,282.400 223.609,289.417 232.991 C 291.388 235.625,293.180 238.272,293.400 238.873 C 293.982 240.461,298.680 245.555,299.829 245.843 C 302.060 246.403,302.780 243.878,300.831 242.329 C 300.104 241.751,298.465 239.059,296.492 235.200 C 294.748 231.790,292.691 228.010,291.921 226.800 C 291.151 225.590,289.563 222.800,288.392 220.600 C 287.222 218.400,285.932 216.119,285.527 215.531 C 284.743 214.395,272.800 190.649,272.800 190.227 C 272.800 190.090,271.873 187.958,270.739 185.489 C 258.827 159.539,250.186 131.726,243.804 98.800 C 242.888 94.070,241.692 85.552,240.997 78.800 C 240.645 75.390,240.280 72.240,240.185 71.800 C 239.770 69.881,239.271 55.161,239.541 52.800 L 239.838 50.200 240.546 51.800 C 240.935 52.680,241.796 55.560,242.459 58.200 C 246.437 74.042,252.399 87.654,259.543 97.200 C 266.014 105.847,272.075 111.448,278.105 114.354 C 279.917 115.227,282.570 116.674,284.000 117.569 C 287.594 119.819,295.230 123.592,296.200 123.596 C 296.640 123.598,298.620 124.054,300.600 124.610 C 311.336 127.623,311.791 127.727,318.170 128.601 C 324.299 129.441,326.101 129.394,327.030 128.367 C 327.900 127.405,331.995 127.518,336.665 128.632 C 338.020 128.955,340.090 129.189,341.265 129.152 C 342.439 129.114,344.867 129.121,346.661 129.166 C 349.520 129.239,354.929 128.753,357.453 128.196 C 357.995 128.077,358.383 127.606,358.518 126.904 C 358.727 125.825,357.745 111.359,357.429 110.847 C 357.341 110.704,357.074 109.150,356.836 107.394 C 353.369 81.789,339.750 55.593,323.600 43.461 C 306.031 30.263,275.234 23.004,249.525 26.001 C 244.841 26.547,243.073 26.354,243.273 25.319 C 243.514 24.081,251.749 18.094,259.124 13.795 C 262.790 11.658,263.200 11.167,263.200 8.915 C 263.200 5.610,260.162 3.598,257.400 5.073 M99.000 265.197 C 68.299 268.496,47.959 292.802,50.044 323.700 C 52.531 360.543,86.445 379.252,128.600 367.035 C 133.325 365.666,137.433 364.084,137.982 363.421 C 138.628 362.643,139.355 337.269,138.752 336.543 C 137.813 335.410,135.933 336.019,133.600 338.210 C 111.780 358.704,85.258 350.275,81.970 321.800 C 78.423 291.073,103.779 276.263,130.362 293.535 C 132.240 294.755,133.335 295.200,134.462 295.200 L 136.000 295.200 136.000 282.014 C 136.000 269.864,135.945 268.799,135.300 268.456 C 134.335 267.944,127.118 266.481,122.023 265.765 C 116.947 265.052,103.452 264.719,99.000 265.197 M278.136 271.024 C 277.990 271.403,278.344 273.623,278.921 275.957 C 280.815 283.610,280.855 284.679,280.698 324.000 L 280.551 361.000 279.432 365.800 C 278.816 368.440,278.287 371.140,278.256 371.800 L 278.200 373.000 303.400 372.987 C 331.236 372.973,332.671 372.871,340.183 370.366 C 363.818 362.483,366.770 331.768,345.100 319.202 C 341.435 317.077,341.417 317.006,344.104 315.200 C 351.220 310.419,354.473 304.506,354.449 296.400 C 354.409 283.175,345.777 274.616,329.200 271.364 C 323.856 270.316,278.523 270.014,278.136 271.024 M317.409 290.032 C 327.110 293.028,327.611 305.035,318.200 308.979 C 316.017 309.894,312.050 310.794,311.363 310.530 C 310.766 310.301,310.482 290.052,311.067 289.467 C 311.598 288.935,314.775 289.218,317.409 290.032 M315.658 328.177 C 329.106 331.028,331.933 347.599,319.855 352.777 C 317.233 353.900,311.948 354.855,311.305 354.321 C 310.575 353.715,310.570 328.159,311.300 327.865 C 312.123 327.533,312.870 327.586,315.658 328.177 " stroke="none" fill="#08341f" fill-rule="evenodd"></path><path id="path2" d="M0.000 205.000 L 0.000 410.000 200.000 410.000 L 400.000 410.000 400.000 205.000 L 400.000 0.000 200.000 0.000 L 0.000 0.000 0.000 205.000 M261.459 5.171 C 265.162 7.429,264.181 11.109,259.099 14.021 C 254.415 16.704,251.548 18.608,246.900 22.119 C 241.890 25.905,242.003 26.525,247.600 25.955 C 264.997 24.183,294.251 27.688,304.329 32.753 C 305.138 33.159,306.520 33.719,307.400 33.996 C 308.280 34.273,310.530 35.315,312.400 36.311 C 334.604 48.141,348.404 68.412,355.348 99.401 C 357.939 110.963,359.585 126.859,358.300 127.912 C 356.791 129.148,338.784 129.862,336.737 128.766 C 334.739 127.697,327.910 127.459,327.176 128.432 C 325.962 130.041,314.644 128.806,305.200 126.034 C 299.880 124.473,298.231 124.038,296.600 123.764 C 294.654 123.439,288.023 120.254,284.200 117.810 C 282.660 116.825,279.575 115.115,277.344 114.009 C 262.742 106.770,248.876 84.646,242.370 58.205 C 241.676 55.386,240.822 52.432,240.471 51.640 L 239.834 50.200 239.560 53.000 C 238.860 60.146,241.163 82.762,244.426 100.800 C 248.029 120.712,255.775 148.632,261.793 163.400 C 262.511 165.160,263.232 167.050,263.395 167.600 C 263.703 168.632,265.290 172.490,269.012 181.255 C 273.060 190.788,283.950 212.974,286.259 216.393 C 286.777 217.159,287.200 217.921,287.200 218.086 C 287.200 218.251,288.762 221.044,290.670 224.293 C 292.579 227.542,295.382 232.664,296.900 235.675 C 300.079 241.985,300.133 242.045,302.670 242.134 C 304.542 242.199,304.602 242.163,305.887 240.200 C 308.098 236.823,307.383 237.054,314.771 237.331 C 374.272 239.559,413.602 299.538,389.701 351.600 C 367.453 400.059,306.568 417.299,261.000 388.042 C 250.447 381.267,237.375 368.061,236.014 362.800 C 235.758 361.810,234.667 359.110,233.591 356.800 C 230.595 350.372,229.495 345.543,226.825 327.095 C 226.064 321.836,225.745 318.462,225.956 317.895 C 226.138 317.403,226.415 315.380,226.570 313.400 C 229.323 278.289,254.941 248.115,288.884 240.004 C 292.740 239.082,294.024 238.004,292.433 237.020 C 289.984 235.507,279.870 219.343,273.415 206.627 C 252.118 164.675,239.970 126.109,235.418 86.000 C 235.081 83.030,234.627 79.160,234.408 77.400 C 233.457 69.731,233.092 62.089,233.048 48.933 C 233.021 41.197,232.861 34.728,232.692 34.559 C 231.881 33.747,229.380 35.710,215.856 47.776 C 210.048 52.957,189.725 73.395,185.720 78.083 C 184.004 80.091,181.331 83.189,179.779 84.967 C 178.227 86.745,175.950 89.460,174.718 91.000 C 173.487 92.540,171.604 94.880,170.534 96.200 C 167.710 99.684,158.480 112.068,155.927 115.800 C 154.722 117.560,152.567 120.710,151.136 122.800 C 149.706 124.890,146.768 129.390,144.606 132.800 C 138.442 142.526,138.480 142.463,132.107 153.600 C 128.876 159.247,120.674 175.335,116.506 184.200 C 112.140 193.487,110.486 197.288,103.977 213.000 C 102.610 216.300,100.718 220.593,99.773 222.539 C 98.828 224.486,98.152 226.331,98.270 226.639 C 98.699 227.756,100.656 227.282,101.861 225.769 C 105.191 221.588,105.371 221.472,108.110 221.765 C 170.613 228.441,209.711 290.687,187.119 347.554 C 164.847 403.616,95.362 424.284,45.000 389.826 C 30.631 379.995,15.608 362.469,14.014 353.676 C 13.767 352.312,12.951 349.502,12.201 347.431 C 9.909 341.100,8.838 333.039,7.969 315.583 C 7.450 305.164,7.458 305.032,8.923 298.152 C 11.986 283.781,15.808 274.001,22.790 262.675 C 27.055 255.758,34.548 246.812,37.288 245.366 C 37.887 245.050,38.697 244.470,39.088 244.077 C 51.707 231.406,82.824 218.927,91.175 223.187 C 94.066 224.662,94.162 224.530,95.392 217.400 C 96.035 213.676,96.344 212.466,98.324 205.926 C 99.382 202.431,100.663 198.877,103.416 191.800 C 121.891 144.301,155.634 94.718,197.641 53.339 C 201.248 49.786,204.830 46.375,205.600 45.759 C 206.370 45.142,207.810 43.885,208.800 42.964 C 219.554 32.959,231.931 23.117,244.725 14.394 C 246.919 12.899,252.745 8.516,254.800 6.816 C 258.040 4.134,259.264 3.832,261.459 5.171 M51.278 251.591 C 32.284 264.296,22.552 304.512,33.017 327.059 C 36.877 335.376,45.149 333.357,42.643 324.710 C 34.643 297.096,40.345 268.031,56.776 252.661 C 61.234 248.491,57.112 247.689,51.278 251.591 M264.917 266.123 C 259.084 268.292,251.446 279.067,248.276 289.600 C 242.852 307.621,243.214 317.131,249.712 327.245 C 254.030 333.967,256.982 332.235,253.816 324.838 C 251.271 318.892,251.087 314.638,252.984 305.600 C 253.515 303.070,254.245 298.930,254.606 296.400 C 255.334 291.311,256.439 286.501,257.615 283.304 C 258.146 281.861,258.314 280.677,258.156 279.504 C 257.780 276.718,262.914 269.412,266.300 267.915 C 268.106 267.116,268.285 266.845,267.520 266.080 C 266.939 265.499,266.577 265.505,264.917 266.123 M40.890 339.919 C 39.548 340.951,39.312 343.126,40.393 344.500 C 41.982 346.521,46.359 345.812,46.955 343.437 C 47.709 340.434,43.438 337.957,40.890 339.919 " stroke="none" fill="#fbfbfb" fill-rule="evenodd"></path></g></svg>